<?xml version="1.0" standalone="no"?>
<!DOCTYPE svg PUBLIC "-//W3C//DTD SVG 20010904//EN"
 "http://www.w3.org/TR/2001/REC-SVG-20010904/DTD/svg10.dtd">
<svg version="1.0" xmlns="http://www.w3.org/2000/svg"
 width="288.000000pt" height="288.000000pt" viewBox="0 0 288.000000 288.000000"
 preserveAspectRatio="xMidYMid meet">
<metadata>
Created by potrace 1.11, written by Peter Selinger 2001-2013
</metadata>
<g transform="translate(0.000000,288.000000) scale(0.100000,-0.100000)"
fill="#000000" stroke="none">
<path d="M0 1988 l1 -893 22 28 c27 32 59 35 104 8 27 -17 32 -26 36 -73 3
-29 10 -73 16 -98 15 -59 22 -97 26 -140 1 -19 5 -42 8 -50 4 -8 8 -43 11 -78
3 -35 8 -68 12 -74 4 -6 8 -35 9 -64 2 -63 -4 -65 -75 -33 -78 35 -131 99
-155 187 -11 41 -13 -3 -14 -330 l-1 -378 285 0 c192 0 285 3 285 10 0 6 -11
22 -25 36 -14 14 -33 36 -42 50 -11 17 -23 24 -39 22 -46 -6 -175 128 -181
186 -7 77 -13 109 -22 120 -6 6 -37 20 -71 30 -33 10 -60 23 -60 28 0 6 8 7
17 3 40 -15 138 -34 144 -27 3 4 11 34 17 67 9 48 9 77 -4 150 -8 50 -19 140
-24 200 -5 61 -11 121 -14 135 -10 55 -26 198 -26 241 0 42 4 50 39 80 21 19
51 42 65 52 15 10 38 36 51 57 14 22 38 46 55 55 16 9 30 24 30 33 0 10 13 44
29 75 16 31 27 58 24 61 -3 2 2 15 11 28 8 12 22 49 30 80 8 31 19 66 25 77 6
11 10 24 10 28 -1 4 1 16 5 25 8 17 10 16 35 -3 14 -11 62 -53 106 -94 170
-156 287 -255 301 -255 4 0 17 -9 28 -19 12 -10 56 -33 99 -50 72 -28 82 -30
123 -20 34 9 48 9 57 0 18 -18 37 -13 37 12 0 23 -21 70 -53 118 -23 35 -99
272 -105 327 l-4 44 107 -104 c60 -56 116 -112 126 -123 53 -59 101 -120 115
-148 31 -59 74 -198 77 -247 4 -63 21 -84 61 -75 17 3 45 8 61 10 17 2 49 8
73 14 31 8 47 8 60 0 14 -9 28 -7 65 10 52 24 52 23 104 -31 36 -38 61 -36 54
5 0 4 19 7 44 7 41 0 58 -5 105 -32 8 -4 25 -12 38 -18 12 -5 36 -20 52 -32
46 -34 50 -11 4 30 -96 87 -107 94 -149 94 l-40 0 7 66 c10 99 17 133 30 149
6 8 10 38 9 69 -1 32 2 54 8 54 10 0 64 -100 91 -170 8 -19 22 -46 32 -61 11
-14 25 -53 33 -88 23 -97 57 -151 96 -151 13 0 19 7 19 22 0 12 4 35 9 52 33
113 55 176 62 176 17 0 21 -73 10 -163 -7 -50 -16 -136 -21 -190 -5 -54 -12
-102 -15 -107 -7 -11 -31 -171 -39 -260 -3 -30 -10 -71 -16 -90 -7 -26 -6 -44
4 -75 8 -22 20 -83 26 -136 10 -82 10 -102 -4 -142 -9 -26 -16 -58 -16 -70 -1
-30 -39 -73 -72 -81 -18 -4 -30 -16 -37 -38 -6 -18 -21 -44 -32 -58 l-21 -25
6 26 c8 38 68 139 82 139 7 0 15 7 18 16 8 22 8 26 -4 19 -7 -4 -7 3 0 20 6
15 10 35 10 47 0 11 9 33 21 49 19 27 19 32 7 47 -8 9 -20 32 -28 49 -7 18
-16 31 -19 28 -4 -2 -13 -37 -21 -77 -7 -40 -23 -95 -35 -123 -12 -27 -30 -70
-41 -95 -10 -25 -33 -63 -49 -85 -17 -22 -34 -45 -38 -52 -6 -9 63 -12 303
-13 l310 0 -1 437 c-1 348 -3 430 -12 398 -7 -22 -17 -49 -23 -60 -6 -11 -19
-45 -28 -77 -19 -68 -85 -154 -131 -174 -18 -7 -52 -18 -75 -23 l-42 -9 7 51
c25 181 35 241 54 312 11 44 21 88 21 98 0 9 4 25 10 35 5 9 12 43 15 74 l6
57 56 26 c65 29 63 29 63 11 0 -8 7 -16 15 -20 16 -6 30 -34 50 -106 11 -38
13 111 14 903 l1 947 -1440 0 -1440 0 0 -892z m1802 -255 c15 -15 28 -30 28
-35 0 -5 32 -48 71 -96 82 -101 138 -200 118 -212 -7 -5 -18 -6 -25 -3 -8 3
-27 0 -44 -5 -31 -11 -39 -5 -18 16 9 9 8 12 -8 12 -21 0 -51 -18 -103 -62
-18 -16 -36 -27 -39 -24 -8 8 38 55 71 72 53 28 23 44 -37 19 -16 -7 -17 -4
-12 21 5 24 -14 164 -40 292 -8 39 1 40 38 5z m986 -504 c-4 -11 -79 -41 -85
-35 -2 2 -1 11 3 20 4 11 13 15 25 11 11 -4 19 -2 19 4 0 6 9 11 21 11 11 0
19 -5 17 -11z m-10 -721 c-28 -36 -114 -77 -165 -78 -56 0 -37 17 42 38 41 11
90 32 107 46 43 34 46 33 16 -6z"/>
<path d="M927 1424 c-4 -4 13 -19 38 -35 24 -15 49 -37 55 -48 14 -27 -2 -27
-26 0 -41 47 -150 98 -114 54 11 -14 6 -15 -46 -9 -32 3 -72 9 -89 13 -32 8
-90 -3 -100 -19 -4 -6 8 -10 29 -10 19 0 38 -4 41 -10 4 -6 -8 -10 -30 -10
-20 0 -43 -7 -51 -15 -9 -8 -32 -14 -57 -13 -44 0 -49 -2 -143 -86 -52 -45
-58 -66 -11 -38 116 70 142 79 230 84 63 3 92 9 106 22 18 16 21 16 65 -6 39
-19 50 -20 66 -10 21 12 51 9 104 -11 24 -9 31 -8 41 6 11 16 13 15 30 -3 29
-33 75 -20 75 21 0 20 -74 114 -96 123 -23 9 -30 0 -14 -19 16 -20 12 -19 -35
5 -41 21 -57 24 -68 14z"/>
<path d="M635 1002 c-147 -66 -214 -121 -218 -179 -3 -34 34 -50 77 -34 27 11
28 13 11 25 -16 11 -14 15 26 49 48 41 59 45 59 20 0 -10 8 -39 17 -65 14 -40
24 -51 60 -68 48 -23 109 -26 148 -8 28 13 58 62 70 116 8 40 20 40 68 1 30
-24 35 -34 27 -45 -15 -18 -4 -34 24 -34 23 0 86 57 86 78 0 6 -11 21 -25 34
-81 76 -118 93 -275 123 -93 18 -83 19 -155 -13z"/>
<path d="M1938 1014 c-37 -7 -77 -18 -87 -24 -11 -5 -28 -10 -39 -10 -24 0
-137 -81 -152 -110 -9 -17 -6 -25 27 -55 49 -45 106 -48 83 -4 -8 14 -3 24 27
48 45 37 63 39 63 9 1 -43 37 -106 71 -124 36 -18 109 -15 156 8 29 14 72 89
73 126 0 23 0 23 31 5 49 -29 64 -50 49 -68 -10 -12 -8 -16 16 -26 42 -16 80
0 76 31 -7 61 -73 116 -211 176 -84 37 -87 37 -183 18z"/>
<path d="M1378 783 c5 -112 -11 -171 -64 -240 -53 -68 -84 -124 -84 -153 0
-36 39 -99 71 -115 36 -19 117 -30 154 -21 20 5 26 12 23 29 -3 24 -17 25 -90
11 -34 -6 -38 -4 -57 27 -26 42 -27 102 -3 126 66 66 86 120 103 270 12 112 5
143 -34 143 -21 0 -22 -3 -19 -77z"/>
<path d="M328 445 c-3 -88 3 -119 32 -165 29 -45 90 -100 90 -81 0 6 -8 25
-18 43 -11 18 -26 56 -35 83 -10 28 -28 77 -42 110 l-25 60 -2 -50z"/>
<path d="M1590 376 c-36 -13 -48 -29 -75 -108 -22 -64 -61 -103 -121 -120 -50
-15 -80 -14 -240 13 -74 13 -128 7 -122 -14 8 -24 72 -47 133 -47 33 0 78 -5
100 -11 22 -6 103 -14 180 -18 121 -7 146 -6 191 9 62 22 104 48 104 65 0 6 6
25 14 41 39 82 20 137 -63 179 -57 28 -54 28 -101 11z"/>
<path d="M1178 3 c6 -2 18 -2 25 0 6 3 1 5 -13 5 -14 0 -19 -2 -12 -5z"/>
</g>
</svg>
